<?xml version="1.0" encoding="UTF-8" standalone="no"?>
<svg
   height="16"
   viewBox="0 0 16 16"
   width="16"
   version="1.1"
   id="svg4"
   sodipodi:docname="icon_andromeda.svg"
   inkscape:version="1.3 (0e150ed6c4, 2023-07-21)"
   xml:space="preserve"
   xmlns:inkscape="http://www.inkscape.org/namespaces/inkscape"
   xmlns:sodipodi="http://sodipodi.sourceforge.net/DTD/sodipodi-0.dtd"
   xmlns="http://www.w3.org/2000/svg"
   xmlns:svg="http://www.w3.org/2000/svg"><defs
     id="defs4" /><sodipodi:namedview
     id="namedview4"
     pagecolor="#505050"
     bordercolor="#eeeeee"
     borderopacity="1"
     inkscape:showpageshadow="0"
     inkscape:pageopacity="0"
     inkscape:pagecheckerboard="0"
     inkscape:deskcolor="#505050"
     inkscape:zoom="22.627417"
     inkscape:cx="2.7400388"
     inkscape:cy="17.854446"
     inkscape:window-width="1350"
     inkscape:window-height="1212"
     inkscape:window-x="3269"
     inkscape:window-y="229"
     inkscape:window-maximized="0"
     inkscape:current-layer="svg4"
     showgrid="false" /><linearGradient
     id="a"
     gradientUnits="userSpaceOnUse"
     x2="0"
     y1="1"
     y2="15"><stop
       offset="0"
       stop-color="#ff5f5f"
       id="stop1" /><stop
       offset=".5"
       stop-color="#e1da5b"
       id="stop2" /><stop
       offset="1"
       stop-color="#5fff97"
       id="stop3" /></linearGradient><path
     d="M 8.290989,7.3570752 A 0.55658126,0.55658126 0 0 0 7.7344077,7.9136565 v 5.5658115 a 0.55658126,0.55658126 0 0 0 0.5565813,0.556581 h 6.678975 a 0.55658126,0.55658126 0 0 0 0.556582,-0.556581 V 9.5834001 A 0.55658126,0.55658126 0 0 0 14.969964,9.026819 H 12.74364 A 0.55658126,0.55658126 0 0 1 12.187058,8.4702377 V 7.9136565 A 0.55658126,0.55658126 0 0 0 11.630477,7.3570752 Z"
     fill="#e0e0e0"
     id="path1"
     style="stroke-width:0.556581" /><path
     style="display:inline;fill:#e0e0e0;fill-opacity:1;stroke-width:0.0220971"
     d="M 3.0219359,14.407856 C 2.4602494,14.30633 1.8230739,13.868359 1.4744799,13.344191 1.2624434,13.02536 1.1463751,12.731351 1.0931503,12.378258 0.93257284,11.312987 1.4635566,10.292514 2.4301659,9.8087111 2.8321677,9.6075029 3.0267357,9.5691121 3.6479778,9.5684216 l 0.3444633,-3.83e-4 0.014575,-0.6794854 c 0.00802,-0.373717 0.015013,-1.2214165 0.015548,-1.8837766 0.0012,-1.4801544 0.0327,-3.0638453 0.064132,-3.2238081 C 4.1207912,3.6074509 4.1910042,3.4828969 4.3414752,3.3290044 L 4.4746601,3.1927911 4.839262,3.0776112 c 1.1295311,-0.3568257 5.779218,-1.6701754 6.94677,-1.962183 0.375863,-0.094004 0.392737,-0.092653 0.629313,0.050395 0.177656,0.107422 0.367529,0.2937749 0.435015,0.4269506 0.02892,0.057066 0.06318,0.1670178 0.07614,0.2443365 0.02285,0.1363345 0.06429,2.0992067 0.06583,3.118114 l 7.57e-4,0.5026605 -0.990984,0.495588 -0.990984,0.4955879 -0.01603,-1.5725263 c -0.0088,-0.86489 -0.01961,-1.5761058 -0.02398,-1.5804797 -0.0044,-0.00437 -1.1098923,0.3074949 -2.4567064,0.6930422 C 7.1675892,4.374644 6.0482489,4.6949837 6.0269805,4.700963 c -0.036539,0.010272 -0.038701,0.1516903 -0.039225,2.5660315 -5.915e-4,2.7204937 -0.027332,4.7385035 -0.06659,5.0252245 -0.1128681,0.824342 -0.6086134,1.523222 -1.3360195,1.88346 -0.3815093,0.188937 -0.5811739,0.234818 -1.0606601,0.243728 -0.2187612,0.0041 -0.4449085,-0.0011 -0.5025495,-0.01155 z"
     id="path2" /></svg>
